:FULLY-SPECIFIED
:DEGREES
51
root 8.99671 16.1987 -27.8141 5.59524 -12.0916 0.0919218
lfemur -30.1378 8.40661 -22.9468
ltibia 34.662
lfoot -9.71762 7.11079
ltoes -3.48052
rfemur 0.625671 -0.148941 15.4574
rtibia 50.7385
rfoot 11.4245 -8.95252
rtoes -2.9476
lowerback -5.18314 0.752856 -1.94848
upperback -2.41202 1.06516 2.55066
thorax 0.33817 0.558285 3.77898
lowerneck -22.3305 -4.23861 -12.1604
upperneck 17.6861 -4.91827 13.3076
head 9.9594 -1.60769 6.03938
lclavicle 1.99033e-14 -1.90833e-14
lhumerus -41.2038 -4.26044 88.5923
lradius 20.4097
lwrist -4.47857
lhand 3.24235 -17.1545
lfingers 7.12502
lthumb 28.6921 10.6618
rclavicle 1.99033e-14 -1.90833e-14
rhumerus -43.5296 14.113 -91.6948
rradius 38.3921
rwrist -19.6042
rhand -29.5309 -25.7039
rfingers 7.12502
rthumb -2.86444 -55.6644
52
root 9.02345 16.2227 -27.685 5.48424 -12.0646 0.265289
lfemur -29.2286 8.16173 -23.2267
ltibia 34.0902
lfoot -9.95756 7.31528
ltoes -3.71112
rfemur -0.596345 -0.321228 15.3918
rtibia 52.6757
rfoot 10.079 -9.61917
rtoes -1.43138
lowerback -5.15817 0.584069 -2.15972
upperback -2.32425 0.848692 2.59108
thorax 0.427716 0.448918 3.92983
lowerneck -22.4132 -4.1244 -11.7468
upperneck 17.5695 -4.78493 12.9195
head 9.8906 -1.55735 5.83924
lclavicle 2.50966e-15 8.74653e-15
lhumerus -40.6583 -4.29257 88.497
lradius 20.5084
lwrist -4.03031
lhand 3.06978 -17.1592
lfingers 7.12502
lthumb 28.5272 10.6849
rclavicle 2.50966e-15 8.74653e-15
rhumerus -43.2882 13.9307 -91.4567
rradius 38.0215
rwrist -19.3632
rhand -29.5482 -25.7712
rfingers 7.12502
rthumb -2.8811 -55.7315
53
root 9.04248 16.2478 -27.5628 5.33568 -12.0971 0.496479
lfemur -28.2876 8.15047 -23.5886
ltibia 33.4658
lfoot -10.2061 7.52415
ltoes -3.38131
rfemur -1.80469 -0.356219 15.3658
rtibia 54.435
rfoot 8.56096 -9.81849
rtoes -3.66467
lowerback -5.25958 0.554625 -2.34534
upperback -2.1057 0.818847 2.5203
thorax 0.709968 0.426804 3.96347
lowerneck -22.6465 -4.09571 -11.7034
upperneck 17.61 -4.73209 12.8977
head 9.93777 -1.52479 5.83502
lclavicle 2.35063e-14 0
lhumerus -39.8076 -4.82784 88.4295
lradius 20.6198
lwrist -4.04247
lhand 2.20409 -17.4214
lfingers 7.12502
lthumb 27.6998 10.5586
rclavicle 2.35063e-14 0
rhumerus -42.9286 13.4867 -91.1367
rradius 37.9083
rwrist -19.2928
rhand -29.3862 -25.6051
rfingers 7.12502
rthumb -2.72471 -55.5674
54
root 9.06077 16.2792 -27.4449 5.23365 -11.9767 0.826819
lfemur -27.4474 8.05401 -24.0716
ltibia 32.848
lfoot -10.3932 7.58723
ltoes -2.89549
rfemur -3.05715 -0.540568 15.2506
rtibia 55.9653
rfoot 7.40904 -10.0479
rtoes -5.85209
lowerback -5.10353 0.498588 -2.6243
upperback -2.15447 0.756907 2.42847
thorax 0.575274 0.400109 4.02002
lowerneck -22.7327 -3.98609 -11.656
upperneck 17.9396 -4.60709 12.8631
head 10.0497 -1.46463 5.84653
lclavicle -5.24295e-15 -1.35174e-14
lhumerus -39.386 -5.87341 88.6563
lradius 20.8758
lwrist -3.56517
lhand 1.53751 -17.4604
lfingers 7.12502
lthumb 27.0622 10.6203
rclavicle -5.24295e-15 -1.35174e-14
rhumerus -43.0575 13.2223 -90.9946
rradius 38.0512
rwrist -19.4163
rhand -29.4669 -26.1224
rfingers 7.12502
rthumb -2.80265 -56.0838
55
root 9.08353 16.3066 -27.3221 5.19989 -11.7902 0.863372
lfemur -26.6292 7.68216 -24.2053
ltibia 32.2607
lfoot -10.4348 7.76555
ltoes -3.47494
rfemur -4.25298 -0.748141 15.3913
rtibia 57.3242
rfoot 6.36379 -10.5036
rtoes -4.2584
lowerback -4.92277 0.410582 -2.58309
upperback -2.28745 0.635131 2.4549
thorax 0.348616 0.345226 4.0144
lowerneck -22.4602 -3.92644 -11.6071
upperneck 17.9565 -4.55737 12.8038
head 9.99596 -1.45342 5.82204
lclavicle -1.79652e-14 -1.66979e-14
lhumerus -39.1166 -6.20096 88.6857
lradius 21.0495
lwrist -3.25864
lhand 0.841818 -17.5901
lfingers 7.12502
lthumb 26.3964 10.5923
rclavicle -1.79652e-14 -1.66979e-14
rhumerus -43.2425 13.0583 -90.8541
rradius 38.076
rwrist -19.5821
rhand -29.7988 -26.1338
rfingers 7.12502
rthumb -3.12315 -56.0907
56
root 9.10333 16.3346 -27.2048 5.22049 -11.602 0.617442
lfemur -25.8452 7.36432 -24.0159
ltibia 31.643
lfoot -10.3015 7.97159
ltoes -4.36824
rfemur -5.46514 -0.827971 15.9138
rtibia 58.5184
rfoot 5.03143 -10.7509
rtoes -2.28574
lowerback -4.9903 0.316456 -2.25441
upperback -2.18518 0.494254 2.53904
thorax 0.50675 0.268547 3.90971
lowerneck -22.357 -4.03717 -11.5966
upperneck 17.6839 -4.68396 12.7257
head 9.89635 -1.52337 5.76037
lclavicle 2.03257e-14 -6.36111e-15
lhumerus -38.3314 -5.93856 88.3162
lradius 21.1612
lwrist -3.8174
lhand 0.672059 -17.7115
lfingers 7.12502
lthumb 26.2339 10.4952
rclavicle 2.03257e-14 -6.36111e-15
rhumerus -43.0462 12.8988 -90.6199
rradius 38.1097
rwrist -19.6844
rhand -29.8341 -25.6354
rfingers 7.12502
rthumb -3.15726 -55.5917
57
root 9.11944 16.354 -27.1003 5.25876 -11.3341 0.578659
lfemur -25.1905 7.09119 -24.0521
ltibia 31.0535
lfoot -10.2192 8.0319
ltoes -4.09995
rfemur -6.8011 -0.989197 16.2669
rtibia 59.6204
rfoot 3.87486 -10.6797
rtoes -2.61707
lowerback -5.12157 0.197437 -2.19318
upperback -2.02295 0.332538 2.57571
thorax 0.76082 0.180792 3.90648
lowerneck -22.5665 -4.07274 -11.5427
upperneck 17.6609 -4.68756 12.5612
head 9.92005 -1.53304 5.68962
lclavicle -1.65737e-14 1.66979e-14
lhumerus -37.4797 -6.97695 88.584
lradius 21.4248
lwrist -3.04867
lhand 0.507587 -17.3638
lfingers 7.12502
lthumb 26.0765 10.8662
rclavicle -1.65737e-14 1.66979e-14
rhumerus -42.7869 12.923 -90.4558
rradius 38.2235
rwrist -19.862
rhand -29.8255 -25.6699
rfingers 7.12502
rthumb -3.14896 -55.6264
